<svg xmlns="http://www.w3.org/2000/svg" viewBox="0 0 940 170" width="940" height="170" role="img" aria-label="judge scoring matrix">
  <defs>
    <linearGradient id="bg" x1="0" y1="0" x2="1" y2="1"><stop offset="0" stop-color="#0f0f1a"/><stop offset="1" stop-color="#1a1a2e"/></linearGradient>
  </defs>
  <rect width="940" height="170" fill="url(#bg)"/>
  <text x="470" y="28" text-anchor="middle" font-family="JetBrains Mono, monospace" font-size="13" fill="#94a3b8" letter-spacing="2">JUDGE · 6 DIMENSIONS × N DIRECTIONS</text>
  <g font-family="JetBrains Mono,monospace" font-size="11" text-anchor="middle">
    <g fill="#475569">
      <text x="290" y="58">层级</text><text x="370" y="58">排版</text><text x="450" y="58">配色</text>
      <text x="530" y="58">动效</text><text x="610" y="58">工艺</text><text x="690" y="58">惊艳</text><text x="830" y="58">均分</text>
    </g>
    <g>
      <text x="150" y="84" fill="#e2e8f0" text-anchor="end">Editorial</text>
      <rect x="260" y="70" width="60" height="18" rx="4" fill="#3b82f6" opacity=".35"/><text x="290" y="83" fill="#3b82f6">9</text>
      <rect x="340" y="70" width="60" height="18" rx="4" fill="#a855f7" opacity=".35"/><text x="370" y="83" fill="#a855f7">9</text>
      <rect x="420" y="70" width="60" height="18" rx="4" fill="#f97316" opacity=".35"/><text x="450" y="83" fill="#f97316">8</text>
      <rect x="500" y="70" width="60" height="18" rx="4" fill="#10b981" opacity=".35"/><text x="530" y="83" fill="#10b981">7</text>
      <rect x="580" y="70" width="60" height="18" rx="4" fill="#eab308" opacity=".35"/><text x="610" y="83" fill="#eab308">9</text>
      <rect x="660" y="70" width="60" height="18" rx="4" fill="#ef4444" opacity=".35"/><text x="690" y="83" fill="#ef4444">9</text>
      <rect x="780" y="70" width="100" height="18" rx="4" fill="#0f172a" stroke="#10b981"/><text x="830" y="83" fill="#10b981" font-weight="700">8.5 ★</text>
    </g>
    <g transform="translate(0,30)">
      <text x="150" y="84" fill="#e2e8f0" text-anchor="end">Dark Premium</text>
      <rect x="260" y="70" width="60" height="18" rx="4" fill="#3b82f6" opacity=".28"/><text x="290" y="83" fill="#3b82f6">8</text>
      <rect x="340" y="70" width="60" height="18" rx="4" fill="#a855f7" opacity=".28"/><text x="370" y="83" fill="#a855f7">8</text>
      <rect x="420" y="70" width="60" height="18" rx="4" fill="#f97316" opacity=".28"/><text x="450" y="83" fill="#f97316">9</text>
      <rect x="500" y="70" width="60" height="18" rx="4" fill="#10b981" opacity=".28"/><text x="530" y="83" fill="#10b981">9</text>
      <rect x="580" y="70" width="60" height="18" rx="4" fill="#eab308" opacity=".28"/><text x="610" y="83" fill="#eab308">8</text>
      <rect x="660" y="70" width="60" height="18" rx="4" fill="#ef4444" opacity=".28"/><text x="690" y="83" fill="#ef4444">8</text>
      <rect x="780" y="70" width="100" height="18" rx="4" fill="#0f172a" stroke="#94a3b8"/><text x="830" y="83" fill="#94a3b8">8.3</text>
    </g>
    <g transform="translate(0,60)">
      <text x="150" y="84" fill="#475569" text-anchor="end">… 其余方向</text>
      <rect x="260" y="70" width="500" height="18" rx="4" fill="#1e293b"/>
    </g>
  </g>
</svg>
